<?xml version="1.0" encoding="UTF-8"?>
<svg version="1.1" xmlns="http://www.w3.org/2000/svg" width="87" height="81">
<path d="M0 0 C28.71 0 57.42 0 87 0 C87 26.73 87 53.46 87 81 C58.29 81 29.58 81 0 81 C0 54.27 0 27.54 0 0 Z " fill="#180F38" transform="translate(0,0)"/>
<path d="M0 0 C3.73327665 1.06665047 5.00539624 2.13582531 7.5 5 C8.16 5 8.82 5 9.5 5 C10.2425 4.175 10.985 3.35 11.75 2.5 C14.5 0 14.5 0 17.5625 -0.5625 C20.5 0 20.5 0 22.875 1.5625 C25.04455002 4.81682503 24.79451507 7.17130414 24.5 11 C25.4590625 11.2165625 25.4590625 11.2165625 26.4375 11.4375 C28.5 12 28.5 12 29.5 13 C29.64115161 15.67058851 29.54247107 18.32432238 29.5 21 C27.52 21.99 27.52 21.99 25.5 23 C25.55800781 23.95261719 25.61601563 24.90523437 25.67578125 25.88671875 C25.72089844 27.14097656 25.76601563 28.39523438 25.8125 29.6875 C25.87050781 30.92886719 25.92851563 32.17023437 25.98828125 33.44921875 C25.5 37 25.5 37 23.765625 39.91796875 C18.69034906 43.15376071 13.82951924 42.72560363 7.9375 42.625 C6.23303711 42.65400391 6.23303711 42.65400391 4.49414062 42.68359375 C-3.65703285 42.63550423 -3.65703285 42.63550423 -7.26171875 39.91796875 C-8.79808992 36.29756097 -8.89665253 33.61045525 -8.75 29.6875 C-8.71390625 28.43324219 -8.6778125 27.17898437 -8.640625 25.88671875 C-8.57101563 24.45779297 -8.57101563 24.45779297 -8.5 23 C-9.82 22.34 -11.14 21.68 -12.5 21 C-12.6953125 14.9453125 -12.6953125 14.9453125 -12.5 13 C-11.84 12.34 -11.18 11.68 -10.5 11 C-9.51 11 -8.52 11 -7.5 11 C-7.62375 9.39125 -7.62375 9.39125 -7.75 7.75 C-7.5 4 -7.5 4 -5.9375 1.5 C-3.5 0 -3.5 0 0 0 Z " fill="#7D57C2" transform="translate(36.5,20)"/>
<path d="M0 0 C3.3 0 6.6 0 10 0 C10.02685412 2.31243792 10.04632841 4.6249627 10.0625 6.9375 C10.07410156 8.22527344 10.08570313 9.51304688 10.09765625 10.83984375 C10 14 10 14 9 15 C5.99668982 15.14193337 3.00782866 15.04236378 0 15 C0 10.05 0 5.1 0 0 Z " fill="#1A103B" transform="translate(47,43)"/>
<path d="M0 0 C3.3 0 6.6 0 10 0 C10 4.95 10 9.9 10 15 C3.06640625 15.09765625 3.06640625 15.09765625 1 15 C0 14 0 14 -0.09765625 10.83984375 C-0.08025391 8.90818359 -0.08025391 8.90818359 -0.0625 6.9375 C-0.05347656 5.64714844 -0.04445312 4.35679688 -0.03515625 3.02734375 C-0.02355469 2.02832031 -0.01195312 1.02929688 0 0 Z " fill="#1A103B" transform="translate(33,43)"/>
<path d="M0 0 C4.95 0 9.9 0 15 0 C15 1.32 15 2.64 15 4 C10.05 4 5.1 4 0 4 C0 2.68 0 1.36 0 0 Z " fill="#1B113C" transform="translate(47,35)"/>
<path d="M0 0 C4.95 0 9.9 0 15 0 C15 1.32 15 2.64 15 4 C10.05 4 5.1 4 0 4 C0 2.68 0 1.36 0 0 Z " fill="#1B113C" transform="translate(28,35)"/>
<path d="M0 0 C1.67542976 0.28604898 3.34385343 0.61781233 5 1 C5 2.65 5 4.3 5 6 C2.03 6 -0.94 6 -4 6 C-1.125 1.125 -1.125 1.125 0 0 Z " fill="#1F1442" transform="translate(52,24)"/>
<path d="M0 0 C2.375 0.125 2.375 0.125 5 1 C6.8125 3.5625 6.8125 3.5625 8 6 C5.03 6 2.06 6 -1 6 C-1.042721 4.33388095 -1.04063832 2.66617115 -1 1 C-0.67 0.67 -0.34 0.34 0 0 Z " fill="#1F1443" transform="translate(34,24)"/>
</svg>
